A stranger named Silas flees from a devastating storm and finds refuge with Tom and Gillian on their farm. While struggling with the Storm, Silas seems to be the only one who can help Tom and Gillian to find their son but there are other more dangerous forces out there, that are waiting for the three...
 
http://www.imdb.com/title/tt1331329/

Subs: Dutch (srt).

Een vreemdeling, genaamd Silas, vlucht van een allesvernietigende storm. Silas vindt vervolgens onderkomen in de boerderij van Tom en Gillian. Silas lijkt de enige te zijn die Tom en Gillian kan helpen hun zoon te zoeken. Maar naast de grote storm zijn er nog meer uiterst gevaarlijke krachten aan het werk..
 
http://www.moviemeter.nl/film/61433

Ondertitels: Nederlands (srt).

General
Complete name                    : Final Storm-AC3-XviD-DVDRip 2010 TBS\Final Storm-AC3-XviD-DVDRip 2010 TBS.avi
Format                           : AVI
Format/Info                      : Audio Video Interleave
File size                        : 1.46 GiB
Duration                         : 1h 28mn
Overall bit rate                 : 2 370 Kbps
Writing application              : VirtualDubMod 1.5.4.1 (build 2178/release)
Writing library                  : VirtualDubMod build 2178/release

Video
ID                               : 0
Format                           : MPEG-4 Visual
Format profile                   : Simple@L3
Format settings, BVOP            : No
Format settings, QPel            : No
Format settings, GMC             : No warppoints
Format settings, Matrix          : Default (H.263)
Codec ID                         : XVID
Codec ID/Hint                    : XviD
Duration                         : 1h 28mn
Bit rate                         : 1 976 Kbps
Width                            : 720 pixels
Height                           : 400 pixels
Display aspect ratio             : 16:9
Frame rate                       : 25.000 fps
Resolution                       : 8 bits
Colorimetry                      : 4:2:0
Scan type                        : Progressive
Bits/(Pixel*Frame)               : 0.274
Stream size                      : 1.22 GiB (83%)
Writing library                  : XviD 1.1.2 (UTC 2006-11-01)

Audio
ID                               : 1
Format                           : AC-3
Format/Info                      : Audio Coding 3
Codec ID                         : 2000
Duration                         : 1h 28mn
Bit rate mode                    : Constant
Bit rate                         : 384 Kbps
Channel(s)                       : 6 channels
Channel positions                : Front: L C R, Surround: L R, LFE
Sampling rate                    : 48.0 KHz
Stream size                      : 242 MiB (16%)
Alignment                        : Split accross interleaves
Interleave, duration             : 40 ms (1.00 video frame)
Interleave, preload duration     : 500 ms

Thanks to BOB1961 &  SwingNow.

TBS.